<svg width="150" height="150" viewBox="0 0 150 150" fill="none" xmlns="http://www.w3.org/2000/svg">
<g clip-path="url(#clip0_326_1001)">
<rect width="150" height="150" rx="75" fill="#FFC121"/>
<path d="M73.7679 27.7495C57.3095 27.7495 43.961 43.5259 43.961 62.9941C43.961 70.5141 33.2403 89.473 36.632 95.1926H111.022C114.414 89.473 103.566 70.505 103.566 62.9941C103.566 43.5259 90.2263 27.7495 73.7679 27.7495Z" fill="black"/>
<path d="M93.6992 38.6794C99.1278 39.2068 107.248 43.6078 110.958 36.9153C112.649 33.86 115.741 29.1317 120.269 28.0041M93.6992 38.6794C93.8538 34.8694 95.536 26.9221 101.037 25.6127C106.539 24.3033 98.4367 33.7782 93.6992 38.6794ZM93.6992 38.6794C100.01 33.2872 112.331 23.8668 111.103 29.3135C109.876 34.7694 98.9823 37.8246 93.6992 38.6794ZM93.6992 38.6794C99.0186 41.2436 106.584 50.5549 113.377 42.362C120.178 34.1692 127.971 35.1149 128.626 39.7251L93.6992 38.6794Z" stroke="black" stroke-width="0.872932" stroke-linecap="round"/>
<path d="M38.2315 88.8096L114.895 87.3456C121.997 87.0001 138.082 90.2736 145.602 106.141C145.375 105.641 173.436 155.352 175.764 162.5C183.384 176.812 171.963 199.245 150.221 191.543C147.584 190.979 126.016 179.067 126.016 179.067L125.852 190.079C125.852 190.079 121.305 187.624 112.813 188.315C104.32 189.015 94.4628 198.062 94.4628 198.062C96.3815 180.658 76.1949 189.379 69.757 198.062C69.757 198.062 63.7556 191.852 57.345 190.779C48.5975 189.306 36.2583 199.235 36.2583 199.235V188.333L16.7264 193.461C3.38695 197.299 -11.2619 202.964 -15.8175 203.318C-33.1943 204.673 -52.4443 186.951 -38.0046 167.255C-34.0582 162.991 0.331686 116.743 0.331686 116.743C17.663 94.8656 25.5558 88.8096 38.2315 88.8096Z" fill="#FF85D2"/>
<path d="M114.894 87.3456L38.2309 88.8096C25.5643 88.8096 17.6625 94.8656 0.331125 116.743C0.331125 116.743 -5.67937 124.827 -12.9629 134.538L20.8996 158.881L131.053 154.652L162.242 136.084C154.14 121.217 145.465 105.868 145.592 106.15C138.072 90.2736 121.996 87.0001 114.894 87.3456Z" fill="white"/>
<path d="M38.2316 88.8096L114.895 87.3456C121.997 87.0001 138.082 90.2736 145.602 106.15C145.402 105.741 154.113 121.154 162.251 136.084L131.062 154.652L20.9093 158.881L-12.9531 134.538C-5.6696 124.818 0.340894 116.743 0.340894 116.743C17.6631 94.8656 25.5559 88.8096 38.2316 88.8096Z" stroke="black" stroke-width="0.581954"/>
<path d="M36.2584 199.253V188.333L16.7266 193.461L20.9094 158.88L38.2407 88.8094L50.6527 88.573L53.8352 120.708L94.4629 122.017L101.092 87.6182L114.904 87.3545L131.072 154.661L126.007 179.14L125.843 190.097C125.843 190.097 121.296 187.642 112.804 188.333C104.311 189.033 94.4538 198.08 94.4538 198.08C96.3725 180.676 76.1859 189.397 69.7481 198.08C69.7481 198.08 63.7467 191.87 57.3361 190.797C48.5886 189.324 36.2584 199.253 36.2584 199.253Z" fill="#6983FF"/>
<path d="M135.744 151.915L162.086 136.157L136.926 155.216L134.553 154.197L135.744 151.915Z" fill="black"/>
<path d="M12.3976 152.506L-12.6992 134.829L10.97 155.716L13.4069 154.879L12.3976 152.506Z" fill="black"/>
<path d="M89.9709 129.155C89.8072 127.118 89.9982 123.135 92.0896 123.508C94.6993 123.972 98.0728 129.155 100.973 127.218C102.419 126.054 100.846 121.18 101.965 119.789" stroke="white" stroke-width="0.581954" stroke-linecap="round"/>
<path d="M36.7854 113.015C36.6217 110.978 36.8127 106.995 38.9041 107.368C41.5138 107.832 44.8873 113.015 47.7879 111.078C49.2337 109.914 47.6606 105.04 48.7791 103.649" stroke="white" stroke-width="0.581954" stroke-linecap="round"/>
<path d="M135.436 138.53C135.272 136.493 135.463 132.51 137.554 132.883C140.164 133.347 143.538 138.53 146.438 136.593C147.884 135.429 146.311 130.555 147.43 129.164" stroke="white" stroke-width="0.581954" stroke-linecap="round"/>
<path d="M101.801 97.3024C101.637 95.2655 101.828 91.2828 103.92 91.6556C106.529 92.1193 109.903 97.3023 112.804 95.3655C114.249 94.2016 112.676 89.3278 113.795 87.9365" stroke="white" stroke-width="0.872932" stroke-linecap="round"/>
<path d="M37.7951 98.6388C37.6315 96.6019 37.8224 92.6192 39.9138 92.992C42.5235 93.4557 45.897 98.6388 48.7886 96.702C50.2344 95.5381 48.6613 90.6642 49.7798 89.2729" stroke="white" stroke-width="0.872932" stroke-linecap="round"/>
<path d="M52.2616 69.6411L52.4889 70.5777C52.8799 72.1872 53.9165 73.5602 55.3532 74.3786C53.9165 75.197 52.8799 76.57 52.4889 78.1795L52.2616 79.1161L52.0342 78.1795C51.6432 76.57 50.6066 75.197 49.1699 74.3786C50.6066 73.5602 51.6432 72.1872 52.0342 70.5777L52.2616 69.6411Z" fill="#FECB4B"/>
<path d="M55.6721 57.8204L53.2715 53.5922C54.0444 41.7076 61.3552 38.3613 68.4387 38.3613C69.8936 43.0715 83.0694 54.9652 87.7523 56.6474L88.7799 61.3576C93.0627 57.8204 98.9186 58.4478 100.337 62.7034C102.256 70.2415 96.1361 72.4602 89.4891 72.1783V79.0709V90.9464C89.4891 90.9464 87.0522 93.9925 84.3061 95.3656C75.0766 100.485 66.3746 94.2562 64.1286 90.9464V79.9802C61.4007 79.9802 55.6812 80.3257 53.2806 75.5246C50.8073 70.5961 53.3443 62.0032 55.6721 57.8204Z" fill="#FF85D2"/>
<path d="M93.0077 69.6411L93.235 70.5777C93.626 72.1872 94.6626 73.5602 96.0993 74.3786C94.6626 75.197 93.626 76.57 93.235 78.1795L93.0077 79.1161L92.7803 78.1795C92.3893 76.57 91.3527 75.197 89.916 74.3786C91.3527 73.5602 92.3893 72.1872 92.7803 70.5777L93.0077 69.6411Z" fill="#FECB4B"/>
<path d="M64.0735 84.7355L72.6028 79.1069C72.6028 79.1069 69.9567 79.5616 68.2654 79.7253C66.6196 79.8889 64.0645 79.9708 64.0645 79.9708V84.7355H64.0735Z" fill="black"/>
<path d="M64.6117 53.8374C63.7752 58.1475 67.0759 60.6754 67.0759 60.6754L63.1387 67.6315H67.7852" stroke="black" stroke-width="0.872932" stroke-linecap="round"/>
<path d="M72.7754 53.7827C74.1393 53.5463 75.5215 53.5736 76.4763 53.8464" stroke="black" stroke-width="0.872932" stroke-linecap="round"/>
<path d="M58.127 52.9648C59.4909 52.7284 60.8731 52.7557 61.8278 53.0285" stroke="black" stroke-width="0.872932" stroke-linecap="round"/>
<path d="M70.6484 71.8868C71.876 71.2412 72.949 70.3682 73.54 69.5771" stroke="black" stroke-width="0.872932" stroke-linecap="round"/>
<path d="M91.7812 65.7767L96.7279 61.7485" stroke="black" stroke-width="0.872932" stroke-linecap="round"/>
<path d="M95.4004 63.2031L98.0283 65.7765" stroke="black" stroke-width="0.872932" stroke-linecap="round"/>
<path d="M74.8216 60.1481C75.2786 60.1481 75.6491 59.7776 75.6491 59.3206C75.6491 58.8636 75.2786 58.4932 74.8216 58.4932C74.3646 58.4932 73.9941 58.8636 73.9941 59.3206C73.9941 59.7776 74.3646 60.1481 74.8216 60.1481Z" fill="black"/>
<path d="M60.1732 59.3293C60.6302 59.3293 61.0006 58.9588 61.0006 58.5018C61.0006 58.0448 60.6302 57.6743 60.1732 57.6743C59.7162 57.6743 59.3457 58.0448 59.3457 58.5018C59.3457 58.9588 59.7162 59.3293 60.1732 59.3293Z" fill="black"/>
</g>
<defs>
<clipPath id="clip0_326_1001">
<rect width="150" height="150" rx="75" fill="white"/>
</clipPath>
</defs>
</svg>
