<svg width="150" height="150" viewBox="0 0 150 150" fill="none" xmlns="http://www.w3.org/2000/svg">
<g clip-path="url(#clip0_326_1099)">
<rect width="150" height="150" rx="75" fill="#FFA5A5"/>
<path d="M31.8711 108.294C34.1483 131.301 56.9323 126.806 68.0366 121.676C68.0366 123.39 68.8818 127.158 72.2507 128.472C78.2724 130.444 80.0097 122.862 80.1271 118.824C81.1013 120.584 83.7894 124.493 86.7122 125.996C98.2861 130.89 104.86 119.645 106.702 113.412C111.48 115.255 121.821 117.509 124.932 111.769C128.043 106.029 125.132 98.2464 123.289 95.0653C131.752 91.2973 127.913 84.8765 124.932 82.1298C126.857 79.3478 129.803 72.8096 126.223 68.9594C119.45 62.656 113.135 64.0646 110.823 65.5553C112.114 63.2429 113.921 56.9982 110.823 50.5069C107.724 44.0157 100.986 43.0179 98.0044 43.3348C99.5069 34.402 92.9804 33.2634 89.5411 33.8034C89.8581 31.2562 88.9307 24.9645 83.6603 23.3563C76.0304 20.6213 71.8633 25.1405 70.7247 27.1008C63.7639 22.8633 59.5147 28.8616 58.2587 32.3948C56.2632 32.3948 53.0821 32.5122 49.9128 35.5759C46.0509 40.189 47.4477 45.8116 48.6216 48.0419C39.1253 48.2297 39.6418 57.0569 41.0974 61.447C30.1808 65.9662 34.1953 76.3311 37.5759 80.9559C22.3044 86.426 27.4105 101.463 31.8711 108.294Z" fill="black"/>
<path d="M48.3059 92.9645L114.357 91.7085C120.473 91.415 134.336 94.2322 140.815 107.907C147.295 121.582 158.998 157.584 158.998 157.584L181.77 128.731C181.77 128.731 187.158 120.221 189.47 114.539C191.794 108.858 194.776 104.832 197.241 107.156C198.99 108.811 196.854 113.401 196.349 116.054L203.075 107.473C205.059 104.773 208.134 104.48 209.014 106.557C209.202 107.473 209.097 107.849 208.885 108.471C208.885 108.471 207.101 111.851 206.725 112.45L211.221 107.156C212.336 105.877 215.142 104.632 216.046 107.473C216.116 107.755 216.046 108.13 215.893 108.471C215.893 108.471 214.848 110.654 214.32 111.394L216.175 109.539C218.44 108.001 220.741 109.14 218.71 113.037C217.677 114.61 216.75 116.007 216.421 116.5C216.421 116.5 217.032 115.807 218.71 114.246C220.389 112.685 223.981 113.236 222.056 117.509C222.056 117.509 186.348 168.735 168.94 193.385C165.653 197.095 154.584 205.511 142.928 193.385C138.69 189.946 127.527 162.126 122.468 154.978V169.838C122.468 169.838 65.972 153.475 46.5921 173.9L46.8152 154.978L7.16335 195.968C2.05721 199.724 -11.6531 204.983 -25.692 195.968C-39.7192 186.953 -81.7774 152.243 -83.4912 150.963C-85.205 149.684 -85.698 145.658 -81.1905 147.371C-79.8288 147.946 -77.4225 149.085 -76.7417 149.414C-76.7417 149.414 -81.0027 146.667 -82.7751 145.282C-84.5359 143.897 -84.8998 142.406 -84.2072 141.115C-83.5147 139.824 -81.1083 140.234 -80.5331 140.504L-74.5349 143.662L-80.5331 139.049C-81.1905 138.392 -82.1648 136.396 -80.8618 135.269C-79.4884 134.084 -77.7747 134.741 -76.413 135.903L-69.8044 140.27C-69.8044 140.27 -74.0654 133.638 -74.3001 132.241C-74.5349 130.844 -72.8094 129.693 -71.4595 130.691C-70.0978 131.689 -66.236 137.182 -64.4517 139.648L-59.0991 141.972C-59.0991 141.972 -61.8224 138.356 -63.2896 135.903C-64.6161 133.696 -62.7849 130.456 -59.5451 132.417C-58.9934 132.757 -58.8995 133.015 -58.5004 133.321C-58.5004 133.321 -47.666 146.374 -44.5437 150.717L-11.1953 169.604L23.1274 116.957C28.3039 109.68 34.7248 97.1316 48.3059 92.9645Z" fill="#6983FF"/>
<path d="M33.0921 169.169L9.41602 138.673L28.878 173.535L33.0921 169.169Z" fill="black"/>
<path d="M131.131 171.658L154.725 144.589L133.455 176.506L131.131 171.658Z" fill="black"/>
<path d="M46.4863 185.614L47.4489 93.0227C69.3524 92.5767 113.7 91.6963 115.871 91.6963C117.961 91.5672 121.153 92.201 122.492 92.5297V184.652L120.59 182.621C119.522 181.658 116.881 179.733 114.815 179.733C109.779 179.358 106.187 182.856 105.025 184.652C104.837 183.043 104.25 179.311 103.382 177.233C102.302 174.651 99.6958 170.46 93.8502 171.458C83.1919 173.042 75.7967 185.978 73.6252 191.014C73.543 188.701 72.5805 185.027 72.1109 184.37C71.6531 183.114 69.059 178.689 62.2273 177.233C55.4074 175.766 48.9044 182.82 46.4863 185.614Z" fill="#FF85D2"/>
<path d="M107.773 141.138C106.012 142.195 101.786 145.434 98.9102 149.918" stroke="white" stroke-width="1.12687" stroke-linecap="round"/>
<path d="M67.7921 129.74C66.0313 130.797 61.7938 134.036 58.9297 138.52" stroke="white" stroke-width="1.12687" stroke-linecap="round"/>
<path d="M116.458 123.049C114.932 121.664 110.612 118.542 105.506 117.086" stroke="white" stroke-width="1.12687" stroke-linecap="round"/>
<path d="M32.9405 169.356C32.9405 169.356 41.9555 160.048 46.8034 155.024L48.5993 92.9404C40.3591 93.5978 31.7314 103.493 28.4447 108.353L8.80664 138.144L32.9405 169.356Z" fill="white" stroke="black" stroke-width="1.12687"/>
<path d="M131.143 171.74L122.387 155.012V92.5532C130.627 93.2106 137.482 100.7 140.769 105.571L157.789 141.103L131.143 171.74Z" fill="white" stroke="black" stroke-width="1.12687"/>
<path d="M89.8712 92.1895L63.9648 92.612L81.8657 178.477C85.5867 175.12 89.9299 172.514 91.761 171.916L89.8712 92.1895Z" fill="white" stroke="black" stroke-width="0.751248"/>
<path d="M58.7656 64.0648L56.6996 60.4259C61.7353 58.853 60.5733 54.8502 59.3525 53.0425C66.3602 54.5333 68.837 48.1477 69.1891 44.7788C71.525 52.3617 77.2181 51.9744 79.4014 51.317C77.2768 58.6417 82.4651 61.6467 86.3974 63.067L87.2778 67.1284C90.9636 64.0765 96.011 64.6282 97.2318 68.2788C98.8869 74.7701 93.6047 76.6834 87.8764 76.4369V82.3764V92.6122C87.8764 92.6122 85.7753 95.2416 83.4159 96.4154C75.4691 100.829 67.9684 95.4646 66.0315 92.6122V83.1629C63.6722 83.1629 58.7538 83.4564 56.6761 79.3245C54.575 75.0753 56.7583 67.6684 58.7656 64.0648Z" fill="#6983FF"/>
<path d="M66.0078 87.2595L73.356 82.4116C73.356 82.4116 71.0787 82.799 69.6232 82.9516C68.2029 83.0924 66.0078 83.1629 66.0078 83.1629V87.2595Z" fill="black"/>
<path d="M66.465 60.6372C65.749 64.3465 68.5896 66.5298 68.5896 66.5298L65.1973 72.5281H69.2" stroke="black" stroke-width="1.12687" stroke-linecap="round"/>
<path d="M73.4961 60.5902C74.6699 60.3906 75.8672 60.4141 76.6889 60.6371" stroke="black" stroke-width="1.12687" stroke-linecap="round"/>
<path d="M60.877 59.8739C62.0508 59.6743 63.2481 59.6978 64.0697 59.9208" stroke="black" stroke-width="1.12687" stroke-linecap="round"/>
<path d="M71.6777 76.1898C72.7342 75.6264 73.6615 74.8869 74.1662 74.1943" stroke="black" stroke-width="1.12687" stroke-linecap="round"/>
<path d="M89.8828 70.9198L94.1438 67.4453" stroke="black" stroke-width="1.12687" stroke-linecap="round"/>
<path d="M92.9941 68.7012L95.2596 70.9197" stroke="black" stroke-width="1.12687" stroke-linecap="round"/>
<path d="M62.6502 65.6964C63.2272 65.6964 63.6949 65.2286 63.6949 64.6516C63.6949 64.0747 63.2272 63.6069 62.6502 63.6069C62.0732 63.6069 61.6055 64.0747 61.6055 64.6516C61.6055 65.2286 62.0732 65.6964 62.6502 65.6964Z" fill="black"/>
<path d="M74.5525 65.6964C75.1295 65.6964 75.5972 65.2286 75.5972 64.6516C75.5972 64.0747 75.1295 63.6069 74.5525 63.6069C73.9755 63.6069 73.5078 64.0747 73.5078 64.6516C73.5078 65.2286 73.9755 65.6964 74.5525 65.6964Z" fill="black"/>
<path d="M91.2676 109.621L98.1697 115.021L109.779 92.542" stroke="white" stroke-width="1.12687" stroke-linecap="round"/>
<path d="M67.1931 111.158L60.291 116.558L49.7383 94.4194" stroke="white" stroke-width="1.12687" stroke-linecap="round"/>
</g>
<defs>
<clipPath id="clip0_326_1099">
<rect width="150" height="150" rx="75" fill="white"/>
</clipPath>
</defs>
</svg>
