<svg width="150" height="150" viewBox="0 0 150 150" fill="none" xmlns="http://www.w3.org/2000/svg">
<g clip-path="url(#clip0_326_1139)">
<rect width="150" height="150" rx="75" fill="#8F5AFF"/>
<path d="M97.2055 50.8684C97.5884 65.1266 89.6093 80.5029 78.0924 80.5029C70.4043 80.5029 63.2982 70.6553 58.3208 61.6195C53.7417 57.0097 52.6543 53.9161 52.6543 50.0414C52.6543 38.3714 61.9964 28.9067 73.5133 28.9067C85.0301 28.9067 96.8839 38.6011 97.2055 50.8684Z" fill="black"/>
<path d="M126.32 40.9905C109.994 33.0267 97.9409 37.6672 93.959 40.9905V44.6355C95.7202 44.467 105.215 46.3967 109.917 51.2209C116.564 58.0514 115.522 70.4412 114.221 75.2501L119.305 71.5592L118.356 67.8683L121.066 70.288L132.537 61.972L133.977 60.9306L131.542 55.0803L136.841 58.8478L138.28 57.8064L144.008 53.656C141.634 51.4047 134.789 45.6922 126.32 40.9905Z" fill="black"/>
<path d="M102.627 89.1713L46.6198 90.2433C35.4858 91.591 29.6661 104.425 25.2707 110.597L-3.82769 155.24L-31.4406 136.678L-44.8105 155.822C-34.1513 164.337 -22.1138 173.741 -16.1103 177.585C-4.21058 185.227 7.41349 180.77 11.7476 177.585L41.2595 142.835V181.949L109.518 183.312V142.82L148.526 220.053L171.559 210.144C157.868 173.067 141.986 138.577 125.078 102.893C119.58 91.3154 107.818 88.9262 102.627 89.1713Z" fill="#FF85D2"/>
<path d="M109.318 140.078V121.394" stroke="white" stroke-width="1.47024" stroke-linecap="round"/>
<path d="M41.291 140.078V121.394" stroke="white" stroke-width="1.47024" stroke-linecap="round"/>
<path d="M84.6913 141.947C84.4156 138.516 84.7372 131.808 88.2597 132.436C92.655 133.217 98.3369 141.947 103.207 138.685C105.642 136.724 102.993 128.516 104.876 126.172" stroke="white" stroke-width="1.47024" stroke-linecap="round"/>
<path d="M105.582 101.975C105.306 98.5441 105.628 91.8361 109.15 92.464C113.056 93.1685 118.002 100.167 122.474 99.3711" stroke="white" stroke-width="1.47024" stroke-linecap="round"/>
<path d="M128.846 146.526C128.57 143.095 128.891 136.387 132.414 137.015C135.676 137.597 139.673 142.575 143.502 143.739" stroke="white" stroke-width="1.47024" stroke-linecap="round"/>
<path d="M35.8679 121.991C35.5922 118.56 35.9292 111.852 39.4363 112.48C43.8317 113.261 49.5135 121.991 54.3837 118.729C56.8188 116.768 54.1693 108.56 56.053 106.216" stroke="white" stroke-width="1.47024" stroke-linecap="round"/>
<path d="M56.2981 60.103L54.0009 56.0599C56.8188 55.1716 63.1286 44.4511 63.5881 40.1323C64.9817 44.6349 72.7005 53.8392 86.9434 58.9697L84.1254 63.4723C88.2145 60.0877 93.5901 62.3237 93.7279 66.4588C93.4829 73.5496 87.7551 72.937 85.1822 71.2217V91.7438C85.1822 91.7438 83.8038 95.4959 81.1849 96.7977C72.3635 101.683 66.5132 94.8986 64.3691 91.7438V81.2683C61.7656 81.2683 56.2981 81.5899 54.0009 77.0108C51.6577 72.3244 54.0774 64.1003 56.2981 60.103Z" fill="#FECB4B"/>
<path d="M64.3535 86.5829L73.9407 80.2578C73.9407 80.2578 70.9696 80.7632 69.0705 80.9623C67.2174 81.1461 64.3535 81.238 64.3535 81.238V86.5829V86.5829Z" fill="black"/>
<path d="M64.6762 55.0034C63.9257 58.9087 66.9121 61.1907 66.9121 61.1907L63.3438 67.4851H67.5554" stroke="black" stroke-width="1.47024" stroke-linecap="round"/>
<path d="M71.873 53.7777C73.4045 53.5173 74.9667 53.5479 76.0387 53.8389" stroke="black" stroke-width="1.47024" stroke-linecap="round"/>
<path d="M57.9082 54.1151C59.4397 53.8547 61.0019 53.8853 62.0739 54.1763" stroke="black" stroke-width="1.47024" stroke-linecap="round"/>
<path d="M67.7988 73.7491C69.1772 73.0139 70.3871 72.0491 71.0456 71.1455" stroke="black" stroke-width="1.47024" stroke-linecap="round"/>
<path d="M84.6152 68.0368L89.6998 63.8711" stroke="black" stroke-width="1.47024" stroke-linecap="round"/>
<path d="M88.2305 65.1577L90.7728 67.5468" stroke="black" stroke-width="1.47024" stroke-linecap="round"/>
<path d="M89.6699 59.5367L95.2293 55.0034" stroke="black" stroke-width="0.980158" stroke-linecap="round"/>
<path d="M60.2192 61.482C60.8451 61.482 61.3525 60.9746 61.3525 60.3486C61.3525 59.7227 60.8451 59.2153 60.2192 59.2153C59.5933 59.2153 59.0859 59.7227 59.0859 60.3486C59.0859 60.9746 59.5933 61.482 60.2192 61.482Z" fill="black"/>
<path d="M73.3892 61.482C74.0151 61.482 74.5224 60.9746 74.5224 60.3486C74.5224 59.7227 74.0151 59.2153 73.3892 59.2153C72.7632 59.2153 72.2559 59.7227 72.2559 60.3486C72.2559 60.9746 72.7632 61.482 73.3892 61.482Z" fill="black"/>
</g>
<defs>
<clipPath id="clip0_326_1139">
<rect width="150" height="150" rx="75" fill="white"/>
</clipPath>
</defs>
</svg>
