<svg width="150" height="150" viewBox="0 0 150 150" fill="none" xmlns="http://www.w3.org/2000/svg">
<g clip-path="url(#clip0_326_1232)">
<rect width="150" height="150" rx="75" fill="#5749F7"/>
<path d="M171.083 170.146C180.615 203.627 140.779 202.833 140.779 202.833H87.4591H65.9468H35.3148L33.8319 191.849C28.4936 201.339 22.8375 202.335 19.1091 202.833C-3.21875 202.833 -9.01255 191.563 -16.4269 181.977L-55.8926 122.493L-35.609 105.281L6.29283 153.961C6.29283 141.971 14.0673 113.415 21.1851 105.281C21.1851 105.281 30.9721 91.1616 46.2139 91.1616C50.2389 91.1616 64.7393 91.1616 64.7393 91.1616L119.351 92.1996C135.229 94.5299 143.268 108.691 148.585 120.078L171.083 170.146Z" fill="#6983FF"/>
<path d="M97.6704 48.1901C97.6704 61.4195 87.6504 72.1491 75.2896 72.1491C62.9288 72.1491 57.368 58.835 57.368 45.6057C48.9686 28.8068 62.9288 24.2417 75.2896 24.2417C87.6398 24.2311 97.6704 34.9608 97.6704 48.1901Z" fill="black"/>
<path d="M112.72 130.998L135.408 170.898H87.5742V202.06" stroke="white" stroke-width="1.01683" stroke-linecap="round"/>
<path d="M102.605 95.896L82.0677 125.712L73.0645 116.709L63.214 127.682L47.1777 95.896" stroke="white" stroke-width="1.01683" stroke-linecap="round"/>
<path d="M83.3798 170.337L74.9698 128.732L78.4228 122.366L77.5648 121.476L73.4552 128.244L79.5455 168.144L70.7754 180.452L73.4552 184.837L83.3798 170.337Z" fill="black"/>
<path d="M78.137 122.08L73.0846 117.027L67.1955 123.552L71.0509 128.551L58.5312 170.93L71.0509 185.155L82.3102 170.93L74.4933 128.551L78.137 122.08Z" fill="#FF85D2"/>
<path d="M55.7569 55.5303L54.9201 38.9645C54.9201 38.2231 58.7756 43.3814 64.8342 43.9639C67.9164 44.2605 75.818 42.5764 82.152 37.8735C89.9159 46.4954 88.1789 59.4705 88.1789 59.4705C92.9452 55.5303 99.1945 58.1254 99.3746 62.9553C99.0886 71.2276 92.4157 70.4968 89.4287 68.4949V92.4115L72.3862 115.65L65.1731 92.4115V80.2096C62.1332 80.2096 55.7675 80.5909 53.0877 75.2526C50.3444 69.7659 53.1724 60.1908 55.7569 55.5303Z" fill="#FECB4B"/>
<path d="M65.1523 86.3847L76.3269 79.0127C76.3269 79.0127 72.8633 79.6058 70.6496 79.8283C68.4994 80.0507 65.1523 80.146 65.1523 80.146V86.3847Z" fill="black"/>
<path d="M65.5219 49.5879C64.6427 54.1318 68.1169 56.801 68.1169 56.801L63.9648 64.1413H68.8689" stroke="black" stroke-width="1.01683" stroke-linecap="round"/>
<path d="M73.9004 48.1478C75.6904 47.8406 77.5017 47.8724 78.7515 48.222" stroke="black" stroke-width="1.01683" stroke-linecap="round"/>
<path d="M57.6309 48.5502C59.4209 48.243 61.2321 48.2748 62.482 48.6243" stroke="black" stroke-width="1.01683" stroke-linecap="round"/>
<path d="M69.1562 71.4395C70.7556 70.5921 72.1644 69.4588 72.9482 68.4102" stroke="black" stroke-width="1.01683" stroke-linecap="round"/>
<path d="M88.75 64.7772L94.6815 59.9155" stroke="black" stroke-width="1.01683" stroke-linecap="round"/>
<path d="M92.9551 61.4087L95.9102 64.1944" stroke="black" stroke-width="1.01683" stroke-linecap="round"/>
<path d="M76.5804 56.4835C77.1771 56.4835 77.6608 55.9998 77.6608 55.4031C77.6608 54.8065 77.1771 54.3228 76.5804 54.3228C75.9837 54.3228 75.5 54.8065 75.5 55.4031C75.5 55.9998 75.9837 56.4835 76.5804 56.4835Z" fill="black"/>
<path d="M60.3108 56.8859C60.9075 56.8859 61.3912 56.4022 61.3912 55.8055C61.3912 55.2088 60.9075 54.7251 60.3108 54.7251C59.7142 54.7251 59.2305 55.2088 59.2305 55.8055C59.2305 56.4022 59.7142 56.8859 60.3108 56.8859Z" fill="black"/>
<path d="M33.0156 188.173L26.6816 148.623" stroke="white" stroke-width="1.01683" stroke-linecap="round"/>
</g>
<defs>
<clipPath id="clip0_326_1232">
<rect width="150" height="150" rx="75" fill="white"/>
</clipPath>
</defs>
</svg>
